<svg width="18" height="18" viewBox="0 0 18 18" fill="none" xmlns="http://www.w3.org/2000/svg">
<path d="M16.4445 0.666748H1.55558C1.00002 0.666748 0.666687 1.11119 0.666687 1.55564V16.3334C0.666687 16.889 1.11113 17.2223 1.55558 17.2223H9.55558V10.7779H7.33335V8.33341H9.55558V6.55564C9.55558 4.44453 10.8889 3.2223 12.7778 3.2223C13.6667 3.2223 14.4445 3.33341 14.6667 3.33341V5.55564H13.3334C12.3334 5.55564 12.1111 6.00008 12.1111 6.77786V8.33341H14.5556L14.2222 10.889H12.1111V17.3334H16.3334C16.8889 17.3334 17.2222 16.889 17.2222 16.4445V1.55564C17.3334 1.11119 16.8889 0.666748 16.4445 0.666748Z" fill="black"/>
</svg>
