<svg width="18" height="18" viewBox="0 0 18 18" fill="none" xmlns="http://www.w3.org/2000/svg">
<path d="M8.95835 1.95841C11.25 1.95841 11.5 1.95841 12.4167 2.00008C13.25 2.04175 13.7084 2.16675 14 2.29175C14.375 2.41675 14.7084 2.66675 15 2.91675C15.2917 3.20841 15.5 3.54175 15.625 3.91675C15.75 4.20841 15.875 4.66675 15.9167 5.50008C15.9584 6.41675 15.9584 6.66675 15.9584 8.95842C15.9584 11.2501 15.9584 11.5001 15.9167 12.4167C15.875 13.2501 15.75 13.7084 15.625 14.0001C15.3334 14.7501 14.75 15.3334 14 15.6251C13.7084 15.7501 13.25 15.8751 12.4167 15.9167C11.5 15.9584 11.25 15.9584 8.95835 15.9584C6.66669 15.9584 6.41669 15.9584 5.50002 15.9167C4.66669 15.8751 4.20835 15.7501 3.91669 15.6251C3.54169 15.5001 3.20835 15.2501 2.91669 15.0001C2.62502 14.7084 2.41669 14.3751 2.29169 14.0001C2.16669 13.7084 2.04169 13.2501 2.00002 12.4167C1.95835 11.5001 1.95835 11.2501 1.95835 8.95842C1.95835 6.66675 1.95835 6.41675 2.00002 5.50008C2.04169 4.66675 2.16669 4.20841 2.29169 3.91675C2.41669 3.54175 2.66669 3.20841 2.91669 2.91675C3.20835 2.62508 3.54169 2.41675 3.91669 2.29175C4.20835 2.16675 4.66669 2.04175 5.50002 2.00008C6.41669 1.95841 6.70835 1.95841 8.95835 1.95841ZM8.95835 0.416748C6.62502 0.416748 6.33335 0.416748 5.41669 0.458415C4.50002 0.500081 3.87502 0.625081 3.33335 0.875081C2.79169 1.08341 2.29169 1.41675 1.87502 1.83341C1.45835 2.25008 1.08335 2.79175 0.87502 3.33341C0.666687 3.87508 0.50002 4.50008 0.458354 5.41675C0.416687 6.33342 0.416687 6.62508 0.416687 8.95842C0.416687 11.2917 0.416687 11.5834 0.458354 12.5001C0.50002 13.4167 0.62502 14.0417 0.87502 14.5834C1.08335 15.1251 1.41669 15.6667 1.87502 16.0834C2.29169 16.5001 2.83335 16.8751 3.37502 17.0834C3.91669 17.2917 4.54169 17.4584 5.45835 17.5001C6.37502 17.5417 6.66669 17.5417 9.00002 17.5417C11.3334 17.5417 11.625 17.5417 12.5417 17.5001C13.4584 17.4584 14.0834 17.3334 14.625 17.0834C15.7917 16.6251 16.6667 15.7501 17.125 14.5834C17.3334 14.0417 17.5 13.4167 17.5417 12.5001C17.5834 11.5834 17.5834 11.2917 17.5834 8.95842C17.5834 6.62508 17.5834 6.33342 17.5417 5.41675C17.5 4.50008 17.375 3.87508 17.125 3.33341C16.9167 2.75008 16.5834 2.25008 16.125 1.83341C15.7084 1.41675 15.1667 1.04175 14.625 0.833415C14.0834 0.625081 13.4584 0.458415 12.5417 0.416748C11.5834 0.416748 11.2917 0.416748 8.95835 0.416748Z" fill="black"/>
<path d="M8.95837 4.5835C6.54171 4.5835 4.58337 6.54183 4.58337 8.9585C4.58337 11.3752 6.54171 13.3335 8.95837 13.3335C11.375 13.3335 13.3334 11.3752 13.3334 8.9585C13.375 6.54183 11.4167 4.5835 8.95837 4.5835ZM8.95837 11.8335C7.37504 11.8335 6.12504 10.5418 6.12504 9.00016C6.12504 7.41683 7.41671 6.16683 8.95837 6.16683C10.5417 6.16683 11.7917 7.4585 11.7917 9.00016C11.8334 10.5418 10.5417 11.8335 8.95837 11.8335Z" fill="black"/>
<path d="M13.5417 5.45833C14.117 5.45833 14.5833 4.99196 14.5833 4.41667C14.5833 3.84137 14.117 3.375 13.5417 3.375C12.9664 3.375 12.5 3.84137 12.5 4.41667C12.5 4.99196 12.9664 5.45833 13.5417 5.45833Z" fill="black"/>
</svg>
