<svg width="16" height="18" viewBox="0 0 16 18" fill="none" xmlns="http://www.w3.org/2000/svg">
<path d="M13.1 4.00841C12.647 3.71275 12.2584 3.32853 11.9577 2.87886C11.6569 2.42919 11.4502 1.92335 11.35 1.39175C11.3083 1.15841 11.2833 0.916748 11.2833 0.666748H8.41667V12.1501C8.39173 12.7724 8.12717 13.3609 7.67834 13.7927C7.2295 14.2244 6.63113 14.466 6.00834 14.4667C5.69207 14.4667 5.3789 14.4045 5.08671 14.2834C4.79452 14.1624 4.52902 13.985 4.30539 13.7614C3.85374 13.3097 3.6 12.6971 3.6 12.0584C3.6 10.7334 4.68334 9.65008 6.00834 9.65008C6.25834 9.65008 6.49167 9.69175 6.71667 9.75841V6.83341C6.48334 6.80008 6.25 6.78341 6.00834 6.78341C3.1 6.78341 0.733337 9.15008 0.733337 12.0584C0.733337 13.8417 1.625 15.4251 2.98334 16.3751C3.84167 16.9751 4.88334 17.3334 6.00834 17.3334C8.91667 17.3334 11.2833 14.9667 11.2833 12.0584V6.23341C12.4083 7.04175 13.7833 7.51675 15.2667 7.51675V4.65008C14.4667 4.65008 13.725 4.40841 13.1 4.00841Z" fill="black"/>
</svg>
